<svg width="82" height="58" viewBox="0 0 82 58" fill="none" xmlns="http://www.w3.org/2000/svg">
<path d="M58.5863 23.654C59.2581 24.1024 59.9859 23.654 59.7619 22.7011L56.0671 16.1991H54.6675L31.4904 57.2853C30.5387 58.2382 29.1951 58.2382 28.6912 57.2853L20.7976 44.057L20.3497 42.2073V30.6045C20.3497 29.4274 19.9019 28.7548 19.1741 28.3063L0.643603 12.0512C-0.532045 11.3786 -0.0281968 9.75308 1.59532 9.75308H34.7374L42.855 14.4054C43.3029 14.8538 43.3029 15.3583 42.855 15.5825L39.608 21.6361C39.608 22.0846 39.1601 22.3088 38.9362 22.0846L32.4421 18.6093L31.0425 18.1609H22.4211C21.7493 18.1609 21.4694 19.1138 21.9732 19.5622L27.7955 24.2145C28.4673 24.8872 28.7472 25.8401 28.7472 26.5127V41.8149C28.7472 42.7678 29.9229 42.992 30.3707 42.2634L54.4995 0.50447C54.9474 -0.168157 56.7948 -0.168157 56.7948 0.50447L81.5954 43.4404C82.7711 44.8417 81.1476 46.2431 79.748 45.7386L50.9726 28.8108C50.5247 28.8108 50.3008 28.1382 50.5247 27.8579L53.9957 22.0285C53.9957 21.5801 54.6675 21.5801 55.1713 21.5801L58.6423 23.8782V23.654H58.5863Z" fill="#E10000"/>
</svg>
