<svg width="153" height="155" viewBox="0 0 153 155" fill="none" xmlns="http://www.w3.org/2000/svg">
<path d="M35.66 6.32C37.4052 6.32 38.82 4.90522 38.82 3.16C38.82 1.41478 37.4052 0 35.66 0C33.9148 0 32.5 1.41478 32.5 3.16C32.5 4.90522 33.9148 6.32 35.66 6.32Z" fill="#54463B"/>
<path d="M38.82 19.64C38.82 21.38 37.41 22.8 35.66 22.8C33.92 22.8 32.5 21.39 32.5 19.64C32.5 17.9 33.91 16.48 35.66 16.48C37.41 16.49 38.82 17.9 38.82 19.64Z" fill="#54463B"/>
<path d="M51.72 6.32C53.4652 6.32 54.88 4.90522 54.88 3.16C54.88 1.41478 53.4652 0 51.72 0C49.9748 0 48.56 1.41478 48.56 3.16C48.56 4.90522 49.9748 6.32 51.72 6.32Z" fill="#54463B"/>
<path d="M54.88 19.64C54.88 21.38 53.47 22.8 51.72 22.8C49.98 22.8 48.56 21.39 48.56 19.64C48.56 17.9 49.97 16.48 51.72 16.48C53.46 16.49 54.88 17.9 54.88 19.64Z" fill="#54463B"/>
<path d="M3.16 6.32C4.90522 6.32 6.32 4.90522 6.32 3.16C6.32 1.41478 4.90522 0 3.16 0C1.41478 0 0 1.41478 0 3.16C0 4.90522 1.41478 6.32 3.16 6.32Z" fill="#54463B"/>
<path d="M6.31 19.64C6.31 21.38 4.9 22.8 3.15 22.8C1.41 22.8 0 21.39 0 19.64C0 17.9 1.41 16.48 3.16 16.48C4.9 16.49 6.31 17.9 6.31 19.64Z" fill="#54463B"/>
<path d="M19.21 6.32C20.9552 6.32 22.37 4.90522 22.37 3.16C22.37 1.41478 20.9552 0 19.21 0C17.4648 0 16.05 1.41478 16.05 3.16C16.05 4.90522 17.4648 6.32 19.21 6.32Z" fill="#54463B"/>
<path d="M22.37 19.64C22.37 21.38 20.96 22.8 19.21 22.8C17.47 22.8 16.05 21.39 16.05 19.64C16.05 17.9 17.46 16.48 19.21 16.48C20.96 16.49 22.37 17.9 22.37 19.64Z" fill="#54463B"/>
<path d="M133.16 6.32C134.905 6.32 136.32 4.90522 136.32 3.16C136.32 1.41478 134.905 0 133.16 0C131.415 0 130 1.41478 130 3.16C130 4.90522 131.415 6.32 133.16 6.32Z" fill="#54463B"/>
<path d="M136.32 19.64C136.32 21.38 134.91 22.8 133.16 22.8C131.42 22.8 130 21.39 130 19.64C130 17.9 131.41 16.48 133.16 16.48C134.91 16.49 136.32 17.9 136.32 19.64Z" fill="#54463B"/>
<path d="M152.38 3.16C152.38 4.9 150.97 6.32 149.22 6.32C147.48 6.32 146.06 4.91 146.06 3.16C146.06 1.42 147.47 0 149.22 0C150.97 0 152.38 1.41 152.38 3.16Z" fill="#54463B"/>
<path d="M152.38 19.64C152.38 21.38 150.97 22.8 149.22 22.8C147.48 22.8 146.06 21.39 146.06 19.64C146.06 17.9 147.47 16.48 149.22 16.48C150.97 16.49 152.38 17.9 152.38 19.64Z" fill="#54463B"/>
<path d="M100.61 6.32C102.355 6.32 103.77 4.90522 103.77 3.16C103.77 1.41478 102.355 0 100.61 0C98.8646 0 97.4498 1.41478 97.4498 3.16C97.4498 4.90522 98.8646 6.32 100.61 6.32Z" fill="#54463B"/>
<path d="M103.77 19.64C103.77 21.38 102.36 22.8 100.61 22.8C98.8698 22.8 97.4498 21.39 97.4498 19.64C97.4498 17.9 98.8598 16.48 100.61 16.48C102.36 16.49 103.77 17.9 103.77 19.64Z" fill="#54463B"/>
<path d="M119.83 3.16C119.83 4.9 118.42 6.32 116.67 6.32C114.93 6.32 113.51 4.91 113.51 3.16C113.51 1.42 114.92 0 116.67 0C118.42 0 119.83 1.41 119.83 3.16Z" fill="#54463B"/>
<path d="M119.83 19.64C119.83 21.38 118.42 22.8 116.67 22.8C114.93 22.8 113.51 21.39 113.51 19.64C113.51 17.9 114.92 16.48 116.67 16.48C118.42 16.49 119.83 17.9 119.83 19.64Z" fill="#54463B"/>
<path d="M68.11 6.32C69.8552 6.32 71.27 4.90522 71.27 3.16C71.27 1.41478 69.8552 0 68.11 0C66.3648 0 64.95 1.41478 64.95 3.16C64.95 4.90522 66.3648 6.32 68.11 6.32Z" fill="#54463B"/>
<path d="M71.26 19.64C71.26 21.38 69.85 22.8 68.1 22.8C66.36 22.8 64.94 21.39 64.94 19.64C64.94 17.9 66.35 16.48 68.1 16.48C69.85 16.49 71.26 17.9 71.26 19.64Z" fill="#54463B"/>
<path d="M84.17 6.32C85.9152 6.32 87.33 4.90522 87.33 3.16C87.33 1.41478 85.9152 0 84.17 0C82.4248 0 81.01 1.41478 81.01 3.16C81.01 4.90522 82.4248 6.32 84.17 6.32Z" fill="#54463B"/>
<path d="M87.32 19.64C87.32 21.38 85.91 22.8 84.16 22.8C82.42 22.8 81 21.39 81 19.64C81 17.9 82.41 16.48 84.16 16.48C85.91 16.49 87.32 17.9 87.32 19.64Z" fill="#54463B"/>
<path d="M35.66 39.32C37.4052 39.32 38.82 37.9052 38.82 36.16C38.82 34.4148 37.4052 33 35.66 33C33.9148 33 32.5 34.4148 32.5 36.16C32.5 37.9052 33.9148 39.32 35.66 39.32Z" fill="#54463B"/>
<path d="M38.82 52.64C38.82 54.38 37.41 55.8 35.66 55.8C33.92 55.8 32.5 54.39 32.5 52.64C32.5 50.9 33.91 49.48 35.66 49.48C37.41 49.49 38.82 50.9 38.82 52.64Z" fill="#54463B"/>
<path d="M51.72 39.32C53.4652 39.32 54.88 37.9052 54.88 36.16C54.88 34.4148 53.4652 33 51.72 33C49.9748 33 48.56 34.4148 48.56 36.16C48.56 37.9052 49.9748 39.32 51.72 39.32Z" fill="#54463B"/>
<path d="M54.88 52.64C54.88 54.38 53.47 55.8 51.72 55.8C49.98 55.8 48.56 54.39 48.56 52.64C48.56 50.9 49.97 49.48 51.72 49.48C53.46 49.49 54.88 50.9 54.88 52.64Z" fill="#54463B"/>
<path d="M3.16 39.32C4.90522 39.32 6.32 37.9052 6.32 36.16C6.32 34.4148 4.90522 33 3.16 33C1.41478 33 0 34.4148 0 36.16C0 37.9052 1.41478 39.32 3.16 39.32Z" fill="#54463B"/>
<path d="M6.31 52.64C6.31 54.38 4.9 55.8 3.15 55.8C1.41 55.8 0 54.39 0 52.64C0 50.9 1.41 49.48 3.16 49.48C4.9 49.49 6.31 50.9 6.31 52.64Z" fill="#54463B"/>
<path d="M19.21 39.32C20.9552 39.32 22.37 37.9052 22.37 36.16C22.37 34.4148 20.9552 33 19.21 33C17.4648 33 16.05 34.4148 16.05 36.16C16.05 37.9052 17.4648 39.32 19.21 39.32Z" fill="#54463B"/>
<path d="M22.37 52.64C22.37 54.38 20.96 55.8 19.21 55.8C17.47 55.8 16.05 54.39 16.05 52.64C16.05 50.9 17.46 49.48 19.21 49.48C20.96 49.49 22.37 50.9 22.37 52.64Z" fill="#54463B"/>
<path d="M133.16 39.32C134.905 39.32 136.32 37.9052 136.32 36.16C136.32 34.4148 134.905 33 133.16 33C131.415 33 130 34.4148 130 36.16C130 37.9052 131.415 39.32 133.16 39.32Z" fill="#54463B"/>
<path d="M136.32 52.64C136.32 54.38 134.91 55.8 133.16 55.8C131.42 55.8 130 54.39 130 52.64C130 50.9 131.41 49.48 133.16 49.48C134.91 49.49 136.32 50.9 136.32 52.64Z" fill="#54463B"/>
<path d="M152.38 36.16C152.38 37.9 150.97 39.32 149.22 39.32C147.48 39.32 146.06 37.91 146.06 36.16C146.06 34.42 147.47 33 149.22 33C150.97 33 152.38 34.41 152.38 36.16Z" fill="#54463B"/>
<path d="M152.38 52.64C152.38 54.38 150.97 55.8 149.22 55.8C147.48 55.8 146.06 54.39 146.06 52.64C146.06 50.9 147.47 49.48 149.22 49.48C150.97 49.49 152.38 50.9 152.38 52.64Z" fill="#54463B"/>
<path d="M100.61 39.32C102.355 39.32 103.77 37.9052 103.77 36.16C103.77 34.4148 102.355 33 100.61 33C98.8646 33 97.4498 34.4148 97.4498 36.16C97.4498 37.9052 98.8646 39.32 100.61 39.32Z" fill="#54463B"/>
<path d="M103.77 52.64C103.77 54.38 102.36 55.8 100.61 55.8C98.8698 55.8 97.4498 54.39 97.4498 52.64C97.4498 50.9 98.8598 49.48 100.61 49.48C102.36 49.49 103.77 50.9 103.77 52.64Z" fill="#54463B"/>
<path d="M119.83 36.16C119.83 37.9 118.42 39.32 116.67 39.32C114.93 39.32 113.51 37.91 113.51 36.16C113.51 34.42 114.92 33 116.67 33C118.42 33 119.83 34.41 119.83 36.16Z" fill="#54463B"/>
<path d="M119.83 52.64C119.83 54.38 118.42 55.8 116.67 55.8C114.93 55.8 113.51 54.39 113.51 52.64C113.51 50.9 114.92 49.48 116.67 49.48C118.42 49.49 119.83 50.9 119.83 52.64Z" fill="#54463B"/>
<path d="M68.11 39.32C69.8552 39.32 71.27 37.9052 71.27 36.16C71.27 34.4148 69.8552 33 68.11 33C66.3648 33 64.95 34.4148 64.95 36.16C64.95 37.9052 66.3648 39.32 68.11 39.32Z" fill="#54463B"/>
<path d="M71.26 52.64C71.26 54.38 69.85 55.8 68.1 55.8C66.36 55.8 64.94 54.39 64.94 52.64C64.94 50.9 66.35 49.48 68.1 49.48C69.85 49.49 71.26 50.9 71.26 52.64Z" fill="#54463B"/>
<path d="M84.17 39.32C85.9152 39.32 87.33 37.9052 87.33 36.16C87.33 34.4148 85.9152 33 84.17 33C82.4248 33 81.01 34.4148 81.01 36.16C81.01 37.9052 82.4248 39.32 84.17 39.32Z" fill="#54463B"/>
<path d="M87.32 52.64C87.32 54.38 85.91 55.8 84.16 55.8C82.42 55.8 81 54.39 81 52.64C81 50.9 82.41 49.48 84.16 49.48C85.91 49.49 87.32 50.9 87.32 52.64Z" fill="#54463B"/>
<path d="M35.66 72.32C37.4052 72.32 38.82 70.9052 38.82 69.16C38.82 67.4148 37.4052 66 35.66 66C33.9148 66 32.5 67.4148 32.5 69.16C32.5 70.9052 33.9148 72.32 35.66 72.32Z" fill="#54463B"/>
<path d="M38.82 85.64C38.82 87.38 37.41 88.8 35.66 88.8C33.92 88.8 32.5 87.39 32.5 85.64C32.5 83.9 33.91 82.48 35.66 82.48C37.41 82.49 38.82 83.9 38.82 85.64Z" fill="#54463B"/>
<path d="M51.72 72.32C53.4652 72.32 54.88 70.9052 54.88 69.16C54.88 67.4148 53.4652 66 51.72 66C49.9748 66 48.56 67.4148 48.56 69.16C48.56 70.9052 49.9748 72.32 51.72 72.32Z" fill="#54463B"/>
<path d="M54.88 85.64C54.88 87.38 53.47 88.8 51.72 88.8C49.98 88.8 48.56 87.39 48.56 85.64C48.56 83.9 49.97 82.48 51.72 82.48C53.46 82.49 54.88 83.9 54.88 85.64Z" fill="#54463B"/>
<path d="M3.16 72.32C4.90522 72.32 6.32 70.9052 6.32 69.16C6.32 67.4148 4.90522 66 3.16 66C1.41478 66 0 67.4148 0 69.16C0 70.9052 1.41478 72.32 3.16 72.32Z" fill="#54463B"/>
<path d="M6.31 85.64C6.31 87.38 4.9 88.8 3.15 88.8C1.41 88.8 0 87.39 0 85.64C0 83.9 1.41 82.48 3.16 82.48C4.9 82.49 6.31 83.9 6.31 85.64Z" fill="#54463B"/>
<path d="M19.21 72.32C20.9552 72.32 22.37 70.9052 22.37 69.16C22.37 67.4148 20.9552 66 19.21 66C17.4648 66 16.05 67.4148 16.05 69.16C16.05 70.9052 17.4648 72.32 19.21 72.32Z" fill="#54463B"/>
<path d="M22.37 85.64C22.37 87.38 20.96 88.8 19.21 88.8C17.47 88.8 16.05 87.39 16.05 85.64C16.05 83.9 17.46 82.48 19.21 82.48C20.96 82.49 22.37 83.9 22.37 85.64Z" fill="#54463B"/>
<path d="M133.16 72.32C134.905 72.32 136.32 70.9052 136.32 69.16C136.32 67.4148 134.905 66 133.16 66C131.415 66 130 67.4148 130 69.16C130 70.9052 131.415 72.32 133.16 72.32Z" fill="#54463B"/>
<path d="M136.32 85.64C136.32 87.38 134.91 88.8 133.16 88.8C131.42 88.8 130 87.39 130 85.64C130 83.9 131.41 82.48 133.16 82.48C134.91 82.49 136.32 83.9 136.32 85.64Z" fill="#54463B"/>
<path d="M152.38 69.16C152.38 70.9 150.97 72.32 149.22 72.32C147.48 72.32 146.06 70.91 146.06 69.16C146.06 67.42 147.47 66 149.22 66C150.97 66 152.38 67.41 152.38 69.16Z" fill="#54463B"/>
<path d="M152.38 85.64C152.38 87.38 150.97 88.8 149.22 88.8C147.48 88.8 146.06 87.39 146.06 85.64C146.06 83.9 147.47 82.48 149.22 82.48C150.97 82.49 152.38 83.9 152.38 85.64Z" fill="#54463B"/>
<path d="M100.61 72.32C102.355 72.32 103.77 70.9052 103.77 69.16C103.77 67.4148 102.355 66 100.61 66C98.8646 66 97.4498 67.4148 97.4498 69.16C97.4498 70.9052 98.8646 72.32 100.61 72.32Z" fill="#54463B"/>
<path d="M103.77 85.64C103.77 87.38 102.36 88.8 100.61 88.8C98.8698 88.8 97.4498 87.39 97.4498 85.64C97.4498 83.9 98.8598 82.48 100.61 82.48C102.36 82.49 103.77 83.9 103.77 85.64Z" fill="#54463B"/>
<path d="M119.83 69.16C119.83 70.9 118.42 72.32 116.67 72.32C114.93 72.32 113.51 70.91 113.51 69.16C113.51 67.42 114.92 66 116.67 66C118.42 66 119.83 67.41 119.83 69.16Z" fill="#54463B"/>
<path d="M119.83 85.64C119.83 87.38 118.42 88.8 116.67 88.8C114.93 88.8 113.51 87.39 113.51 85.64C113.51 83.9 114.92 82.48 116.67 82.48C118.42 82.49 119.83 83.9 119.83 85.64Z" fill="#54463B"/>
<path d="M68.11 72.32C69.8552 72.32 71.27 70.9052 71.27 69.16C71.27 67.4148 69.8552 66 68.11 66C66.3648 66 64.95 67.4148 64.95 69.16C64.95 70.9052 66.3648 72.32 68.11 72.32Z" fill="#54463B"/>
<path d="M71.26 85.64C71.26 87.38 69.85 88.8 68.1 88.8C66.36 88.8 64.94 87.39 64.94 85.64C64.94 83.9 66.35 82.48 68.1 82.48C69.85 82.49 71.26 83.9 71.26 85.64Z" fill="#54463B"/>
<path d="M84.17 72.32C85.9152 72.32 87.33 70.9052 87.33 69.16C87.33 67.4148 85.9152 66 84.17 66C82.4248 66 81.01 67.4148 81.01 69.16C81.01 70.9052 82.4248 72.32 84.17 72.32Z" fill="#54463B"/>
<path d="M87.32 85.64C87.32 87.38 85.91 88.8 84.16 88.8C82.42 88.8 81 87.39 81 85.64C81 83.9 82.41 82.48 84.16 82.48C85.91 82.49 87.32 83.9 87.32 85.64Z" fill="#54463B"/>
<path d="M35.66 105.32C37.4052 105.32 38.82 103.905 38.82 102.16C38.82 100.415 37.4052 99 35.66 99C33.9148 99 32.5 100.415 32.5 102.16C32.5 103.905 33.9148 105.32 35.66 105.32Z" fill="#54463B"/>
<path d="M38.82 118.64C38.82 120.38 37.41 121.8 35.66 121.8C33.92 121.8 32.5 120.39 32.5 118.64C32.5 116.9 33.91 115.48 35.66 115.48C37.41 115.49 38.82 116.9 38.82 118.64Z" fill="#54463B"/>
<path d="M51.72 105.32C53.4652 105.32 54.88 103.905 54.88 102.16C54.88 100.415 53.4652 99 51.72 99C49.9748 99 48.56 100.415 48.56 102.16C48.56 103.905 49.9748 105.32 51.72 105.32Z" fill="#54463B"/>
<path d="M54.88 118.64C54.88 120.38 53.47 121.8 51.72 121.8C49.98 121.8 48.56 120.39 48.56 118.64C48.56 116.9 49.97 115.48 51.72 115.48C53.46 115.49 54.88 116.9 54.88 118.64Z" fill="#54463B"/>
<path d="M3.16 105.32C4.90522 105.32 6.32 103.905 6.32 102.16C6.32 100.415 4.90522 99 3.16 99C1.41478 99 0 100.415 0 102.16C0 103.905 1.41478 105.32 3.16 105.32Z" fill="#54463B"/>
<path d="M6.31 118.64C6.31 120.38 4.9 121.8 3.15 121.8C1.41 121.8 0 120.39 0 118.64C0 116.9 1.41 115.48 3.16 115.48C4.9 115.49 6.31 116.9 6.31 118.64Z" fill="#54463B"/>
<path d="M19.21 105.32C20.9552 105.32 22.37 103.905 22.37 102.16C22.37 100.415 20.9552 99 19.21 99C17.4648 99 16.05 100.415 16.05 102.16C16.05 103.905 17.4648 105.32 19.21 105.32Z" fill="#54463B"/>
<path d="M22.37 118.64C22.37 120.38 20.96 121.8 19.21 121.8C17.47 121.8 16.05 120.39 16.05 118.64C16.05 116.9 17.46 115.48 19.21 115.48C20.96 115.49 22.37 116.9 22.37 118.64Z" fill="#54463B"/>
<path d="M133.16 105.32C134.905 105.32 136.32 103.905 136.32 102.16C136.32 100.415 134.905 99 133.16 99C131.415 99 130 100.415 130 102.16C130 103.905 131.415 105.32 133.16 105.32Z" fill="#54463B"/>
<path d="M136.32 118.64C136.32 120.38 134.91 121.8 133.16 121.8C131.42 121.8 130 120.39 130 118.64C130 116.9 131.41 115.48 133.16 115.48C134.91 115.49 136.32 116.9 136.32 118.64Z" fill="#54463B"/>
<path d="M152.38 102.16C152.38 103.9 150.97 105.32 149.22 105.32C147.48 105.32 146.06 103.91 146.06 102.16C146.06 100.42 147.47 99 149.22 99C150.97 99 152.38 100.41 152.38 102.16Z" fill="#54463B"/>
<path d="M152.38 118.64C152.38 120.38 150.97 121.8 149.22 121.8C147.48 121.8 146.06 120.39 146.06 118.64C146.06 116.9 147.47 115.48 149.22 115.48C150.97 115.49 152.38 116.9 152.38 118.64Z" fill="#54463B"/>
<path d="M100.61 105.32C102.355 105.32 103.77 103.905 103.77 102.16C103.77 100.415 102.355 99 100.61 99C98.8646 99 97.4498 100.415 97.4498 102.16C97.4498 103.905 98.8646 105.32 100.61 105.32Z" fill="#54463B"/>
<path d="M103.77 118.64C103.77 120.38 102.36 121.8 100.61 121.8C98.8698 121.8 97.4498 120.39 97.4498 118.64C97.4498 116.9 98.8598 115.48 100.61 115.48C102.36 115.49 103.77 116.9 103.77 118.64Z" fill="#54463B"/>
<path d="M119.83 102.16C119.83 103.9 118.42 105.32 116.67 105.32C114.93 105.32 113.51 103.91 113.51 102.16C113.51 100.42 114.92 99 116.67 99C118.42 99 119.83 100.41 119.83 102.16Z" fill="#54463B"/>
<path d="M119.83 118.64C119.83 120.38 118.42 121.8 116.67 121.8C114.93 121.8 113.51 120.39 113.51 118.64C113.51 116.9 114.92 115.48 116.67 115.48C118.42 115.49 119.83 116.9 119.83 118.64Z" fill="#54463B"/>
<path d="M68.11 105.32C69.8552 105.32 71.27 103.905 71.27 102.16C71.27 100.415 69.8552 99 68.11 99C66.3648 99 64.95 100.415 64.95 102.16C64.95 103.905 66.3648 105.32 68.11 105.32Z" fill="#54463B"/>
<path d="M71.26 118.64C71.26 120.38 69.85 121.8 68.1 121.8C66.36 121.8 64.94 120.39 64.94 118.64C64.94 116.9 66.35 115.48 68.1 115.48C69.85 115.49 71.26 116.9 71.26 118.64Z" fill="#54463B"/>
<path d="M84.17 105.32C85.9152 105.32 87.33 103.905 87.33 102.16C87.33 100.415 85.9152 99 84.17 99C82.4248 99 81.01 100.415 81.01 102.16C81.01 103.905 82.4248 105.32 84.17 105.32Z" fill="#54463B"/>
<path d="M87.32 118.64C87.32 120.38 85.91 121.8 84.16 121.8C82.42 121.8 81 120.39 81 118.64C81 116.9 82.41 115.48 84.16 115.48C85.91 115.49 87.32 116.9 87.32 118.64Z" fill="#54463B"/>
<path d="M35.66 138.32C37.4052 138.32 38.82 136.905 38.82 135.16C38.82 133.415 37.4052 132 35.66 132C33.9148 132 32.5 133.415 32.5 135.16C32.5 136.905 33.9148 138.32 35.66 138.32Z" fill="#54463B"/>
<path d="M38.82 151.64C38.82 153.38 37.41 154.8 35.66 154.8C33.92 154.8 32.5 153.39 32.5 151.64C32.5 149.9 33.91 148.48 35.66 148.48C37.41 148.49 38.82 149.9 38.82 151.64Z" fill="#54463B"/>
<path d="M51.72 138.32C53.4652 138.32 54.88 136.905 54.88 135.16C54.88 133.415 53.4652 132 51.72 132C49.9748 132 48.56 133.415 48.56 135.16C48.56 136.905 49.9748 138.32 51.72 138.32Z" fill="#54463B"/>
<path d="M54.88 151.64C54.88 153.38 53.47 154.8 51.72 154.8C49.98 154.8 48.56 153.39 48.56 151.64C48.56 149.9 49.97 148.48 51.72 148.48C53.46 148.49 54.88 149.9 54.88 151.64Z" fill="#54463B"/>
<path d="M3.16 138.32C4.90522 138.32 6.32 136.905 6.32 135.16C6.32 133.415 4.90522 132 3.16 132C1.41478 132 0 133.415 0 135.16C0 136.905 1.41478 138.32 3.16 138.32Z" fill="#54463B"/>
<path d="M6.31 151.64C6.31 153.38 4.9 154.8 3.15 154.8C1.41 154.8 0 153.39 0 151.64C0 149.9 1.41 148.48 3.16 148.48C4.9 148.49 6.31 149.9 6.31 151.64Z" fill="#54463B"/>
<path d="M19.21 138.32C20.9552 138.32 22.37 136.905 22.37 135.16C22.37 133.415 20.9552 132 19.21 132C17.4648 132 16.05 133.415 16.05 135.16C16.05 136.905 17.4648 138.32 19.21 138.32Z" fill="#54463B"/>
<path d="M22.37 151.64C22.37 153.38 20.96 154.8 19.21 154.8C17.47 154.8 16.05 153.39 16.05 151.64C16.05 149.9 17.46 148.48 19.21 148.48C20.96 148.49 22.37 149.9 22.37 151.64Z" fill="#54463B"/>
<path d="M133.16 138.32C134.905 138.32 136.32 136.905 136.32 135.16C136.32 133.415 134.905 132 133.16 132C131.415 132 130 133.415 130 135.16C130 136.905 131.415 138.32 133.16 138.32Z" fill="#54463B"/>
<path d="M136.32 151.64C136.32 153.38 134.91 154.8 133.16 154.8C131.42 154.8 130 153.39 130 151.64C130 149.9 131.41 148.48 133.16 148.48C134.91 148.49 136.32 149.9 136.32 151.64Z" fill="#54463B"/>
<path d="M152.38 135.16C152.38 136.9 150.97 138.32 149.22 138.32C147.48 138.32 146.06 136.91 146.06 135.16C146.06 133.42 147.47 132 149.22 132C150.97 132 152.38 133.41 152.38 135.16Z" fill="#54463B"/>
<path d="M152.38 151.64C152.38 153.38 150.97 154.8 149.22 154.8C147.48 154.8 146.06 153.39 146.06 151.64C146.06 149.9 147.47 148.48 149.22 148.48C150.97 148.49 152.38 149.9 152.38 151.64Z" fill="#54463B"/>
<path d="M100.61 138.32C102.355 138.32 103.77 136.905 103.77 135.16C103.77 133.415 102.355 132 100.61 132C98.8646 132 97.4498 133.415 97.4498 135.16C97.4498 136.905 98.8646 138.32 100.61 138.32Z" fill="#54463B"/>
<path d="M103.77 151.64C103.77 153.38 102.36 154.8 100.61 154.8C98.8698 154.8 97.4498 153.39 97.4498 151.64C97.4498 149.9 98.8598 148.48 100.61 148.48C102.36 148.49 103.77 149.9 103.77 151.64Z" fill="#54463B"/>
<path d="M119.83 135.16C119.83 136.9 118.42 138.32 116.67 138.32C114.93 138.32 113.51 136.91 113.51 135.16C113.51 133.42 114.92 132 116.67 132C118.42 132 119.83 133.41 119.83 135.16Z" fill="#54463B"/>
<path d="M119.83 151.64C119.83 153.38 118.42 154.8 116.67 154.8C114.93 154.8 113.51 153.39 113.51 151.64C113.51 149.9 114.92 148.48 116.67 148.48C118.42 148.49 119.83 149.9 119.83 151.64Z" fill="#54463B"/>
<path d="M68.11 138.32C69.8552 138.32 71.27 136.905 71.27 135.16C71.27 133.415 69.8552 132 68.11 132C66.3648 132 64.95 133.415 64.95 135.16C64.95 136.905 66.3648 138.32 68.11 138.32Z" fill="#54463B"/>
<path d="M71.26 151.64C71.26 153.38 69.85 154.8 68.1 154.8C66.36 154.8 64.94 153.39 64.94 151.64C64.94 149.9 66.35 148.48 68.1 148.48C69.85 148.49 71.26 149.9 71.26 151.64Z" fill="#54463B"/>
<path d="M84.17 138.32C85.9152 138.32 87.33 136.905 87.33 135.16C87.33 133.415 85.9152 132 84.17 132C82.4248 132 81.01 133.415 81.01 135.16C81.01 136.905 82.4248 138.32 84.17 138.32Z" fill="#54463B"/>
<path d="M87.32 151.64C87.32 153.38 85.91 154.8 84.16 154.8C82.42 154.8 81 153.39 81 151.64C81 149.9 82.41 148.48 84.16 148.48C85.91 148.49 87.32 149.9 87.32 151.64Z" fill="#54463B"/>
</svg>
