<svg width="349" height="42" viewBox="0 0 349 42" fill="none" xmlns="http://www.w3.org/2000/svg">
<g clip-path="url(#clip0_406_226)">
<path d="M36 19C36 25.3998 32.6573 31.0162 27.6224 34.2057C26.9636 34.6287 26.2701 35.01 25.5558 35.3359C23.2603 36.4037 20.6943 37 17.9965 37C10.5691 37 4.19572 32.5 1.4425 26.0724V26.0655C0.963976 24.9422 0.589482 23.7635 0.353689 22.5362C0.117896 21.3921 0 20.2134 0 19C0 13.4183 2.53824 8.43297 6.51897 5.13251C6.52591 5.13251 6.52591 5.13251 6.52591 5.13251C7.24716 4.53621 8.00308 3.99538 8.80755 3.52388H8.81449C11.5053 1.92219 14.64 1 17.9965 1C26.277 1 33.2468 6.58167 35.3412 14.1949C35.5284 14.8398 35.6741 15.4985 35.7781 16.178C35.9237 17.0932 36 18.0362 36 19Z" fill="#F4B56A"/>
<path d="M19.4459 20.151C16.6996 24.1796 17.4486 28.6796 22.4696 32.1118C24.1826 33.2836 25.9094 33.9769 27.6224 34.2057C26.9635 34.6287 26.27 35.0101 25.5557 35.3359C24.1756 34.913 22.7886 34.2404 21.471 33.339C18.2669 31.148 16.5401 28.4993 16.2072 25.7604C12.92 29.8514 7.95449 30.6349 2.76705 27.0917C2.3024 26.7728 1.85855 26.433 1.44245 26.0725V26.0655C0.963925 24.9423 0.58943 23.7635 0.353638 22.5363C1.1165 23.715 2.19143 24.7828 3.55071 25.7119C8.37059 29.0054 12.7328 28 15.486 23.9715C15.8952 23.3683 16.2558 22.7512 16.5609 22.1133L16.5679 22.1064C16.5748 22.0994 16.5748 22.0856 16.5748 22.0786C16.8175 21.5933 17.0186 21.101 17.1851 20.6017C17.1989 20.5879 17.1989 20.574 17.1989 20.5601C18.8911 15.6441 17.5873 10.2219 12.7328 6.90759C10.5621 5.43071 8.48849 4.84827 6.52586 5.13255C7.24711 4.53625 8.00303 3.99542 8.8075 3.52393H8.81443C10.3332 3.77354 11.9352 4.44611 13.5164 5.52778C17.9133 8.53009 19.7857 12.933 19.5014 17.3567C23.4821 13.1133 29.5156 11.5116 35.3411 14.195C35.5284 14.8398 35.674 15.4985 35.778 16.178C29.7445 12.7319 23.0799 14.8398 19.4459 20.151Z" fill="#EEEAE5"/>
</g>
<g clip-path="url(#clip1_406_226)">
<path d="M45 18.1507C45 8.5682 52.3554 1.72168 62.2471 1.72168C67.7336 1.72168 72.3257 3.72359 75.3159 7.34036L70.5903 11.6912C68.4544 9.2355 65.7846 7.96763 62.6075 7.96763C56.6671 7.96763 52.4355 12.1449 52.4355 18.1373C52.4355 24.1297 56.6538 28.307 62.6075 28.307C65.7846 28.307 68.4678 27.0391 70.5903 24.5434L75.3159 28.8942C72.3257 32.5644 67.7336 34.5663 62.1937 34.5663C52.3554 34.5796 45 27.7198 45 18.1507Z" fill="#F4B56A"/>
<path d="M94.9257 9.24878L94.9124 15.041C94.3117 15.0276 93.9245 15.0543 93.3772 15.0543C89.4793 15.0543 86.8362 17.8303 86.8362 22.5014V34.019H79.7611V9.62247H86.5291V12.8389C88.2512 10.4766 91.1613 9.24878 94.9257 9.24878Z" fill="#F4B56A"/>
<path d="M117.94 20.0991V34.0324H111.319V30.9895C109.997 33.2183 107.461 34.3927 103.87 34.3927C98.1563 34.3927 94.7522 31.2164 94.7522 26.999C94.7522 22.6882 97.7958 19.6987 105.231 19.6987H110.865C110.865 16.6558 109.049 14.8941 105.231 14.8941C102.642 14.8941 96.1272 14.9475 93.5775 15.0543L93.5909 9.26211C97.8359 9.00854 102.281 9.26211 106.192 9.26211C113.628 9.24877 117.94 12.7054 117.94 20.0991ZM110.865 26.3184V23.8226H106.006C102.695 23.8226 101.654 25.0505 101.654 26.6787C101.654 28.4537 103.149 29.6282 105.645 29.6282C107.995 29.6282 110.037 28.5338 110.865 26.3184Z" fill="#F4B56A"/>
<path d="M133.091 10.1697H139.352V15.6149H133.265V34.0324H126.19V15.6149H122.425V10.1697H126.19V9.07531C126.19 3.59009 129.553 0 135.627 0C137.63 0 139.712 0.413727 141.034 1.32126L139.178 6.44614C138.404 5.89895 137.403 5.57865 136.322 5.57865C134.239 5.57865 133.104 6.71306 133.104 9.11535V10.1697H133.091Z" fill="#F4B56A"/>
<path d="M156.318 32.8447C154.863 33.8857 152.728 34.3928 150.552 34.3928C144.785 34.3928 141.434 31.4433 141.434 25.6378V15.6149H137.67V10.1697H141.434V4.21741H148.509V10.1564H154.596V15.6016H148.509V25.5444C148.509 27.6264 149.644 28.7741 151.553 28.7608C152.994 28.6807 153.769 28.4939 154.45 28.0134L156.318 32.8447Z" fill="#F4B56A"/>
<path d="M157.48 18.1507C157.48 8.58155 164.835 1.72168 174.727 1.72168C180.213 1.72168 184.806 3.72359 187.796 7.34036L183.07 11.6912C180.934 9.2355 178.264 7.96763 175.087 7.96763C169.147 7.96763 164.915 12.1449 164.915 18.1373C164.915 24.1297 169.134 28.307 175.087 28.307C178.264 28.307 180.948 27.0391 183.07 24.5434L187.796 28.8942C184.806 32.5644 180.213 34.5663 174.674 34.5663C164.835 34.5796 157.48 27.7198 157.48 18.1507Z" fill="#F4B56A"/>
<path d="M189.558 21.8208C189.558 14.4671 195.231 9.24878 202.987 9.24878C210.743 9.24878 216.376 14.4671 216.376 21.8208C216.376 29.1744 210.743 34.3927 202.987 34.3927C195.231 34.3927 189.558 29.1744 189.558 21.8208ZM209.221 21.8208C209.221 17.6034 206.538 15.0543 203 15.0543C199.463 15.0543 196.74 17.5901 196.74 21.8208C196.74 26.0381 199.463 28.5872 203 28.5872C206.538 28.5872 209.221 26.0381 209.221 21.8208Z" fill="#F4B56A"/>
<path d="M244.73 20.0591V34.0324H237.655V21.1401C237.655 17.1897 235.839 15.3746 232.702 15.3746C229.298 15.3746 226.842 17.4566 226.842 21.9542V34.019H219.767V9.62247H226.535V12.4785C228.444 10.3965 231.301 9.26212 234.611 9.26212C240.378 9.24878 244.73 12.612 244.73 20.0591Z" fill="#F4B56A"/>
<path d="M274.752 20.0591V34.0324H267.677V21.1401C267.677 17.1897 265.861 15.3746 262.724 15.3746C259.32 15.3746 256.864 17.4566 256.864 21.9542V34.019H249.789V9.62247H256.557V12.4785C258.466 10.3965 261.323 9.26212 264.633 9.26212C270.4 9.24878 274.752 12.612 274.752 20.0591Z" fill="#F4B56A"/>
<path d="M303.88 23.8227H285.405C286.086 26.8656 288.675 28.7207 292.4 28.7207C294.989 28.7207 296.845 27.9466 298.527 26.3584L302.291 30.4423C300.022 33.0314 296.618 34.3927 292.213 34.3927C283.776 34.3927 278.276 29.081 278.276 21.8208C278.276 14.5205 283.856 9.24878 291.305 9.24878C298.474 9.24878 304.014 14.0534 304.014 21.9142C304.014 22.4614 303.92 23.2354 303.88 23.8227ZM285.311 19.6854H297.339C296.845 16.6024 294.522 14.6005 291.345 14.6005C288.128 14.6139 285.819 16.5624 285.311 19.6854Z" fill="#F4B56A"/>
<path d="M305.589 21.8208C305.589 14.4671 311.262 9.24878 319.205 9.24878C324.331 9.24878 328.376 11.4776 330.138 15.468L324.651 18.4175C323.33 16.1086 321.381 15.0543 319.165 15.0543C315.574 15.0543 312.77 17.55 312.77 21.8208C312.77 26.0915 315.587 28.5872 319.165 28.5872C321.394 28.5872 323.343 27.5862 324.651 25.224L330.138 28.2135C328.362 32.1106 324.331 34.3794 319.205 34.3794C311.262 34.3927 305.589 29.1744 305.589 21.8208Z" fill="#F4B56A"/>
<path d="M349 32.8447C347.545 33.8857 345.409 34.3928 343.233 34.3928C337.466 34.3928 334.116 31.4433 334.116 25.6378V15.6149H330.351V10.1697H334.116V4.21741H341.191V10.1564H347.278V15.6016H341.191V25.5444C341.191 27.6264 342.326 28.7608 344.234 28.7608C345.276 28.7608 346.317 28.4405 347.091 27.8533L349 32.8447Z" fill="#F4B56A"/>
<path d="M155.304 27.0791C154.596 27.96 153.956 28.4137 152.808 28.6406L149.39 34.326C149.39 34.326 156.946 35.2336 159.602 30.8561C160.737 28.9876 161.418 26.919 161.271 25.1306L157.48 17.9905C157.547 18.8179 156.399 25.7045 155.304 27.0791Z" fill="#F4B56A"/>
<path d="M70.5903 24.5434C74.4749 19.552 76.9445 15.4014 79.7612 9.62256L79.7745 23.2088C78.2794 25.2775 76.771 27.2393 75.3159 28.9076L70.5903 24.5434Z" fill="#F4B56A"/>
<path d="M117.94 34.0325C118.22 35.0601 119.795 36.4614 122.599 36.5549C125.522 36.3413 126.283 34.94 126.203 34.0325H133.278C133.291 44.3356 111.412 44.9896 111.318 34.0325H117.94Z" fill="#F4B56A"/>
</g>
<defs>
<clipPath id="clip0_406_226">
<rect width="36" height="36" fill="white" transform="translate(0 1)"/>
</clipPath>
<clipPath id="clip1_406_226">
<rect width="304" height="42" fill="white" transform="translate(45)"/>
</clipPath>
</defs>
</svg>
