<svg width="1440" height="620" viewBox="0 0 1440 620" fill="none" xmlns="http://www.w3.org/2000/svg">
<g clip-path="url(#clip0_239_124)">
<path d="M823.093 412.085V617.854H1028.86V412.085H823.093Z" fill="#F4B56A"/>
<path d="M1028.86 412.086V617.856H1234.63V412.086H1028.86Z" fill="#EEEAE5"/>
<path d="M1234.64 412.088V617.858H1440.41V412.088H1234.64Z" fill="white"/>
<path d="M0.00512695 412.087L0.00512695 617.857H205.775V412.087H0.00512695Z" fill="#A4A3A4"/>
<path d="M205.777 412.089V617.859H411.547V412.089H205.777Z" fill="#F4B56A"/>
<path d="M1234.2 -0.000488281V205.77H1439.97V-0.000488281H1234.2Z" fill="#F4B56A"/>
<path d="M411.549 412.091V617.861H617.319V412.091H411.549Z" fill="#A4A3A4"/>
<path d="M617.321 412.083V617.853H823.091V412.083H617.321Z" fill="#A8866C"/>
<path d="M823.089 206.316V0.545898L617.319 0.545898V206.316L823.089 206.316Z" fill="#A4A3A4"/>
<path d="M823.92 412.079V206.309L617.11 206.309V412.079H823.92Z" fill="#A4A3A4"/>
<path d="M617.317 206.307V0.537109L411.547 0.537109V206.307L617.317 206.307Z" fill="#A8866C"/>
<path d="M617.319 412.08V206.31L411.549 206.31V412.08H617.319Z" fill="#F4B56A"/>
<path d="M723.268 514.973V309.203L517.498 309.203V514.973H723.268Z" fill="#A8866C"/>
<path d="M659.527 451.232V372.942H581.237V451.232H659.527Z" fill="white"/>
<path d="M411.545 206.309L411.545 0.539062L205.775 0.539062L205.775 206.309L411.545 206.309Z" fill="#EEEAE5"/>
<path d="M411.547 412.082L411.547 206.312L205.777 206.312L205.777 412.082H411.547Z" fill="#A4A3A4"/>
<path d="M-0.0012207 0.543472L-0.0012207 206.313H205.769V0.543472H-0.0012207Z" fill="white"/>
<path d="M205.775 412.083L205.775 206.313L0.00540161 206.313L0.00540161 412.083H205.775Z" fill="#A8866C"/>
<path d="M1440.41 412.082V206.312L1234.64 206.312V412.082H1440.41Z" fill="#EEEAE5"/>
<path d="M1234.63 206.312V0.541992L1028.86 0.541992V206.312L1234.63 206.312Z" fill="#F4B56A"/>
<path d="M1234.63 412.083V206.313L1028.86 206.313V412.083H1234.63Z" fill="#A4A3A4"/>
<path d="M1028.86 206.314V0.543945L823.091 0.543945V206.314L1028.86 206.314Z" fill="#EEEAE5"/>
<path d="M1028.86 412.085V206.315L823.093 206.315V412.085H1028.86Z" fill="white"/>
<path d="M205.77 456.51C294.88 456.51 367.11 528.75 367.11 617.85H411.54V617.83C411.53 504.19 319.41 412.08 205.77 412.08V456.51Z" fill="white"/>
<path d="M0 617.85L44.43 617.86C44.43 528.75 116.67 456.52 205.77 456.52V412.09C92.13 412.09 0.01 504.21 0 617.85Z" fill="#A8866C"/>
<path d="M205.87 45.0999C294.98 45.0999 367.21 117.34 367.21 206.44H411.64V206.43C411.63 92.7899 319.51 0.669922 205.87 0.669922V45.0999Z" fill="#F4B56A"/>
<path d="M823.09 456.51C912.2 456.51 984.43 528.75 984.43 617.85H1028.86V617.84C1028.85 504.2 936.73 412.08 823.09 412.08V456.51Z" fill="#A8866C"/>
<path d="M44.43 206.31C44.43 117.2 116.67 44.97 205.77 44.97V0.540039H205.76C92.12 0.550039 0 92.67 0 206.31H44.43Z" fill="#EEEAE5"/>
<path d="M537.5 126.5V252.45L411.54 126.5V0.540039L537.5 126.5Z" fill="#EEEAE5"/>
<path d="M1234.63 412.09V538.04L1108.68 412.09V286.13L1234.63 412.09Z" fill="white"/>
<path d="M872.25 328.7V377.86L823.09 328.7V279.55L872.25 328.7Z" fill="#A4A3A4"/>
<path d="M872.25 256.49V305.65L823.09 256.49V207.33L872.25 256.49Z" fill="#A4A3A4"/>
<path d="M367.114 240.658V366.608H387.464V240.658H367.114Z" fill="white"/>
<path d="M556.012 126.499V252.449H576.362V126.499H556.012Z" fill="#EEEAE5"/>
<path d="M315.597 240.652V366.602H335.947V240.652H315.597Z" fill="white"/>
<path d="M679.096 206.309V0.539062L651.136 0.539062V206.309H679.096Z" fill="white"/>
<path d="M737.246 206.309V0.539062L709.286 0.539062V206.309H737.246Z" fill="white"/>
<path d="M795.396 206.309V0.539062L767.436 0.539062V206.309H795.396Z" fill="white"/>
<path d="M514.43 561.38C540.388 561.38 561.43 540.337 561.43 514.38C561.43 488.422 540.388 467.38 514.43 467.38C488.473 467.38 467.43 488.422 467.43 514.38C467.43 540.337 488.473 561.38 514.43 561.38Z" fill="white"/>
<path d="M1337.52 356.2C1363.48 356.2 1384.52 335.158 1384.52 309.2C1384.52 283.243 1363.48 262.2 1337.52 262.2C1311.56 262.2 1290.52 283.243 1290.52 309.2C1290.52 335.158 1311.56 356.2 1337.52 356.2Z" fill="white"/>
<path d="M122.313 312.345C124.047 301.62 116.759 291.521 106.034 289.787C95.3099 288.053 85.2105 295.342 83.4767 306.066C81.7429 316.791 89.0313 326.89 99.7556 328.624C110.48 330.358 120.579 323.069 122.313 312.345Z" fill="white"/>
<path d="M160.198 140.662C162.63 130.075 156.018 119.521 145.43 117.09C134.843 114.658 124.289 121.27 121.858 131.858C119.426 142.445 126.038 152.999 136.626 155.43C147.213 157.862 157.767 151.25 160.198 140.662Z" fill="#A4A3A4"/>
<path d="M1370.74 605.697C1389.1 587.342 1389.1 557.584 1370.74 539.229C1352.39 520.875 1322.63 520.875 1304.27 539.229C1285.92 557.584 1285.92 587.342 1304.27 605.697C1322.63 624.051 1352.39 624.051 1370.74 605.697Z" fill="#F4B56A"/>
<path d="M1370.74 479.546C1389.1 461.192 1389.1 431.433 1370.74 413.079C1352.39 394.724 1322.63 394.724 1304.28 413.079C1285.92 431.433 1285.92 461.192 1304.28 479.546C1322.63 497.901 1352.39 497.901 1370.74 479.546Z" fill="#EEEAE5"/>
<path d="M1137.32 206.31L1234.63 300.12V112.51L1137.32 206.31Z" fill="white"/>
<path d="M205.77 303.63L299.58 206.31H111.97L205.77 303.63Z" fill="white"/>
<path d="M55.46 309.2L0 255.74V362.66L55.46 309.2Z" fill="white"/>
<path d="M1068 245.464V167.174L989.713 167.174V245.464H1068Z" fill="#A8866C"/>
</g>
<defs>
<clipPath id="clip0_239_124">
<rect width="1440.4" height="619.45" fill="white"/>
</clipPath>
</defs>
</svg>
