<svg width="183" height="45" viewBox="0 0 183 45" fill="none" xmlns="http://www.w3.org/2000/svg">
<path d="M8.45811 11.5898C8.45811 13.0559 8.34458 14.5221 8.48649 15.9882C8.65679 17.6236 7.49309 19.992 9.28122 20.6969C10.9842 21.4018 12.0344 18.9769 13.4535 18.0183C15.2132 16.8341 16.8027 15.3397 18.3354 13.8172C20.4925 11.7025 22.7063 11.054 24.9486 13.5352C27.2476 16.0728 25.942 18.1593 23.8133 20.0202C21.9968 21.5991 20.237 23.2344 18.3354 24.7288C16.5189 26.1386 16.008 27.2946 17.8812 29.2119C20.4073 31.7777 22.536 34.71 24.8351 37.5013C26.5664 39.616 27.2192 41.9844 24.8634 43.8171C22.4793 45.678 19.9816 45.0013 18.0515 42.7738C15.7809 40.1517 13.5954 37.4167 11.3532 34.7664C10.8707 34.1743 10.4449 33.3002 9.45151 33.5822C8.1459 33.9487 8.51488 35.0765 8.48649 35.9506C8.42973 37.2757 8.57164 38.6291 8.42973 39.9543C8.23105 41.7588 9.62181 44.4374 5.73335 44.381C2.4977 44.3528 0.0567658 43.8453 0.0567658 39.9825C0.0567658 27.4638 0.0851488 14.9168 0 2.39806C0 0.3398 0.908252 -0.0267393 2.72476 0.00145605C5.27922 0.0578468 7.94722 0.00145643 8.3162 3.21573C8.62841 5.97888 8.37296 8.79842 8.37296 11.618C8.40135 11.5898 8.42973 11.5898 8.45811 11.5898Z" fill="#438AC4"/>
<path d="M76.8893 28.7889C76.8609 38.4036 70.1342 44.9167 60.2853 44.8603C50.6351 44.7757 43.3975 37.9524 43.7381 28.5634C44.1071 18.1875 50.3229 12.351 60.6543 12.2101C70.2193 12.0409 76.9177 19.2025 76.8893 28.7889ZM52.8774 28.4224C52.8206 34.2025 54.8926 36.3735 60.4272 36.3735C65.3659 36.3735 68.3745 33.554 68.5164 28.8453C68.6299 24.3623 65.0537 20.3867 60.7111 20.2175C56.1698 20.0484 52.9058 23.4882 52.8774 28.4224Z" fill="#478CC6"/>
<path d="M146.541 29.0991C146.087 39.2212 139.218 45.4524 129.171 44.8885C119.123 44.3246 113.134 37.6141 113.532 27.351C113.872 18.3848 121.337 11.7871 130.59 12.2946C140.779 12.8586 146.995 19.3717 146.541 29.0991ZM130.136 36.3171C135.415 36.3171 137.941 33.7231 137.884 28.3942C137.856 23.742 134.677 20.3303 130.334 20.1894C125.651 20.0484 122.33 23.6574 122.359 28.7607C122.444 33.8359 124.998 36.3171 130.136 36.3171Z" fill="#EEB64D"/>
<path d="M182.985 33.554C182.985 36.0915 183.013 38.6291 182.985 41.1667C182.956 42.8302 183.439 45.0859 180.629 44.7475C178.188 44.4656 174.725 45.2832 174.555 41.2231C174.356 36.6836 174.243 32.1724 174.129 27.6329C173.987 22.6423 171.688 20.3867 166.92 20.6123C162.748 20.8378 160.42 23.4036 160.988 27.9995C161.47 32.0314 160.818 35.9788 160.789 39.9543C160.789 43.5633 156.532 45.9881 153.211 44.6065C151.763 44.0144 151.763 42.8584 151.763 41.6178C151.735 32.6799 151.707 23.742 151.593 14.804C151.593 13.7044 151.763 12.6048 152.899 12.8586C159.398 14.4093 165.87 11.1386 172.341 12.7458C178.898 14.3811 182.758 18.9488 182.928 25.5183C183.013 28.1968 182.928 30.8472 182.928 33.5258C182.985 33.554 182.985 33.554 182.985 33.554Z" fill="#EEB64C"/>
<path d="M92.1593 21.6555C93.6636 24.7288 96.7006 23.8548 99.2267 24.3059C99.6808 25.0953 100.277 25.6311 101.299 25.4901C106.748 27.2946 109.643 30.8754 109.189 35.2457C108.678 40.2927 105.272 43.4505 99.5957 44.3246C94.4016 45.1141 89.4346 45.0013 84.7798 42.0408C81.9415 40.2081 80.5791 37.9242 82.5375 35.0765C84.4676 32.257 87.2491 32.9337 89.6049 34.7382C92.3864 36.8528 95.4518 36.4863 98.5739 36.1761C99.3686 36.0915 100.22 35.9788 100.277 34.8791C100.305 34.0051 99.6525 33.8077 99.028 33.554C96.6722 32.5671 94.3448 31.6931 91.762 31.2419C83.7296 29.8604 79.9831 22.0502 84.5811 16.5521C89.3494 10.8285 102.491 10.8567 107.259 16.5803C109.473 19.2589 108.877 21.5991 105.414 23.5446C104.847 23.5446 104.279 23.5728 103.711 23.5728C102.718 23.2063 101.724 22.8115 100.759 22.445C100.476 21.5145 99.8795 21.007 98.8293 21.1198C97.2967 20.2457 95.7072 19.9074 94.0042 20.6405C92.8689 20.1612 92.3013 20.5559 92.1593 21.6555Z" fill="#488DC5"/>
<path d="M39.8212 29.2965C39.8212 33.0182 39.7929 36.7682 39.8212 40.49C39.8496 42.5483 40.1051 44.6911 36.9546 44.5502C34.2866 44.4092 31.2212 44.7757 30.7103 41.0539C30.4833 39.475 30.5968 37.8679 30.5968 36.2607C30.5968 29.8604 30.54 23.46 30.6252 17.0597C30.6536 15.1706 29.5466 12.633 33.3783 12.633C38.0615 12.6612 39.6509 13.507 39.7929 17.2852C39.9064 21.3172 39.7929 25.3209 39.8212 29.2965Z" fill="#498FC8"/>
<path d="M40.1618 5.02023C40.1618 8.57285 38.2318 10.5183 34.7975 10.4619C31.3631 10.4056 30.1427 8.06534 29.7737 5.33038C29.3763 2.42626 31.874 0.0578472 34.8826 0.00145644C38.3453 -0.0267389 40.1618 1.69318 40.1618 5.02023Z" fill="#EEB853"/>
<path d="M52.8774 28.4224C52.9058 23.4882 56.1982 20.0484 60.6827 20.2175C64.9969 20.3867 68.6015 24.3341 68.488 28.8453C68.3745 33.554 65.3375 36.3735 60.3989 36.3735C54.8642 36.3735 52.8206 34.2025 52.8774 28.4224Z" fill="#F5F8FA"/>
<path d="M130.136 36.3171C124.998 36.3171 122.444 33.8359 122.387 28.7889C122.33 23.6574 125.68 20.0766 130.363 20.2175C134.705 20.3303 137.856 23.7702 137.913 28.4224C137.941 33.7231 135.443 36.3171 130.136 36.3171Z" fill="#FCFAF3"/>
</svg>
