<svg width="200" height="43" viewBox="0 0 200 43" fill="none" xmlns="http://www.w3.org/2000/svg">
<path d="M10.2539 6.62035C10.2539 8.0409 9.79713 9.21836 8.89126 10.1489C7.98538 11.0795 6.74457 11.5429 5.15358 11.5429C3.49028 11.5429 2.21901 11.0871 1.33597 10.1755C0.44913 9.26394 0 8.07888 0 6.62035C0 5.19601 0.483386 3.99576 1.44255 3.00821C2.40171 2.02447 3.63491 1.5307 5.15358 1.5307C6.63419 1.5307 7.84836 2.00548 8.80752 2.95504C9.76668 3.9008 10.2539 5.12384 10.2539 6.62035ZM9.42793 42.1264H0V15.8653H9.42793V42.1264ZM44.2964 42.1264H34.4308V27.0284C34.4308 26.0788 34.1035 25.2242 33.445 24.4569C32.6419 23.5454 31.5799 23.0896 30.2668 23.0896C28.6225 23.0896 27.4236 23.5833 26.6776 24.5671C25.9278 25.5508 25.5548 26.7929 25.5548 28.2856V42.1264H16.0088V15.8653H25.5471V19.147C26.571 18.0531 27.8879 17.1149 29.4942 16.3287C31.1042 15.5462 32.581 15.1512 33.936 15.1512C37.6622 15.1512 40.3875 16.2831 42.1041 18.5431C43.5656 20.4384 44.2964 23.101 44.2964 26.5308V42.1264ZM79.5493 42.1264H70.011V39.3347C69.2803 40.1361 68.3477 40.8502 67.2135 41.4693C65.4588 42.4531 63.6851 42.9468 61.8962 42.9468C57.9492 42.9468 54.733 41.5605 52.2476 38.7877C49.9067 36.1632 48.7382 32.8967 48.7382 28.9958C48.7382 25.4939 49.724 22.4667 51.6995 19.9142C54.0022 16.925 57.1461 15.4285 61.1312 15.4285C63.3959 15.4285 65.5007 15.9375 67.4342 16.9592C68.6408 17.5783 69.501 18.1974 70.011 18.8203V0H79.5493V42.1264ZM70.3384 29.0528C70.3384 27.5221 69.8283 26.2079 68.8045 25.114C67.6702 23.91 66.1896 23.3099 64.3627 23.3099C62.5699 23.3099 61.1655 23.8834 60.1416 25.0343C59.1177 26.1813 58.6077 27.5221 58.6077 29.0566C58.6077 30.5873 59.1101 31.9395 60.1149 33.1056C61.1198 34.2716 62.5357 34.8565 64.3627 34.8565C66.2277 34.8565 67.6893 34.2716 68.7474 33.1056C69.8093 31.9319 70.3384 30.5835 70.3384 29.0528ZM113.759 29.1592C113.759 33.1359 112.332 36.4366 109.481 39.0612C106.63 41.6858 103.049 43 98.7363 43C94.4962 43 90.9413 41.6592 88.0714 38.9777C85.2015 36.2961 83.7666 33.022 83.7666 29.1554C83.7666 25.2166 85.1825 21.9235 88.0143 19.2799C90.8461 16.6363 94.4201 15.3145 98.7325 15.3145C103.083 15.3145 106.672 16.5832 109.504 19.1166C112.336 21.65 113.759 25.0039 113.759 29.1592ZM104.442 29.1592C104.442 27.7348 103.901 26.47 102.824 25.3571C101.747 24.2442 100.422 23.6897 98.8505 23.6897C97.2405 23.6897 95.9083 24.2366 94.8502 25.3305C93.7883 26.4244 93.2592 27.7006 93.2592 29.1592C93.2592 30.5835 93.7997 31.8293 94.8769 32.908C95.954 33.983 97.2786 34.5223 98.8505 34.5223C100.422 34.5223 101.747 33.983 102.824 32.908C103.901 31.8331 104.442 30.5835 104.442 29.1592Z" fill="black"/>
<path d="M136.676 42.1834V27.0815C136.676 26.132 136.349 25.2774 135.691 24.5101C134.888 23.5985 133.826 23.1427 132.512 23.1427C130.868 23.1427 129.669 23.6365 128.923 24.6203C128.173 25.604 127.8 26.846 127.8 28.3388V42.1796H118.262V15.9223H127.8V19.204C128.824 18.1101 130.141 17.1719 131.747 16.3857C133.357 15.6032 134.834 15.2082 136.189 15.2082C139.915 15.2082 142.641 16.3401 144.357 18.6C145.819 20.4954 146.55 23.1579 146.55 26.5878V42.1834H136.676ZM179.934 31.0773H160.69C160.872 32.3535 161.291 33.4132 161.95 34.2488C162.863 35.3807 164.123 35.9466 165.733 35.9466C166.867 35.9466 167.735 35.7833 168.336 35.4529C168.938 35.1262 169.497 34.5603 170.007 33.7551H179.439C178.891 36.3075 177.631 38.3889 175.656 39.9918C173.208 41.9973 169.882 43 165.676 43C161.108 43 157.515 41.8074 154.904 39.4183C152.289 37.0292 150.984 33.793 150.984 29.7061C150.984 25.4027 152.209 21.9729 154.657 19.4205C157.253 16.7199 160.888 15.3715 165.565 15.3715C170.316 15.3715 173.988 16.868 176.584 19.8573C178.815 22.4097 179.93 25.585 179.93 29.3757V31.0773H179.934ZM170.228 25.3305C169.973 24.1987 169.57 23.3592 169.021 22.8123C168.291 22.083 167.229 21.7184 165.843 21.7184C164.416 21.7184 163.339 22.0451 162.608 22.7021C162.022 23.2491 161.565 24.1227 161.238 25.3267H170.228V25.3305ZM200 23.853H194.957V42.1796H185.418V23.853H182.404V15.9223H185.418V8.48149H194.957V15.9223H200V23.853Z" fill="#C31F24"/>
</svg>
