<svg width="253" height="55" viewBox="0 0 253 55" fill="none" xmlns="http://www.w3.org/2000/svg">
<path fill-rule="evenodd" clip-rule="evenodd" d="M211.111 12.9707H217.078V41.8723H216.66C213.597 41.8723 211.113 39.388 211.113 36.3254V12.9707H211.111ZM160.798 42.3733C156.986 43.1834 153.247 42.5592 149.598 40.5216C146.039 38.532 143.652 35.5759 142.46 31.672C140.047 23.7723 144.995 14.9686 152.951 12.8371C156.894 11.7807 160.679 12.2609 164.272 14.2692C170.241 17.6032 172.416 22.7639 172.036 29.4152L147.997 29.3651C148.35 32.077 150.032 34.2001 152.395 35.5196C154.79 36.8598 156.995 37.1792 159.04 36.5446C161.308 35.8327 163.149 33.9809 164.648 32.2565L169.548 35.8264C167.546 39.3984 164.825 41.5153 160.798 42.3733ZM165.352 23.9643C164.596 21.6303 163.652 20.4842 161.475 19.2712C156.306 16.3819 151.218 18.8391 148.849 23.9413L165.352 23.9643ZM247.034 25.6532C247.034 23.3025 246.142 21.4403 244.351 20.027C242.741 18.7577 240.727 18.1126 238.284 18.1126C232.883 18.1126 229.418 22.3338 229.418 27.5384C229.418 32.5509 233.09 36.7304 238.228 36.7304C241.798 36.7304 243.71 34.6427 245.747 32.0436V39.5404C244.708 40.317 243.514 41.1646 242.294 41.6615C241.011 42.198 239.476 42.461 237.702 42.461C229.113 42.461 223.449 35.3463 223.449 27.125C223.449 22.9038 224.76 19.4153 227.399 16.693C230.201 13.8099 233.875 12.3799 238.372 12.3799C246.9 12.3799 253 17.2754 253 26.1209V41.8702H252.58C249.516 41.8702 247.034 39.3859 247.034 36.3233V25.6532ZM216.714 9.54272C216.088 10.2442 215.19 10.5678 214.092 10.5678C212.046 10.5678 210.581 9.0563 210.581 7.025C210.581 4.9436 212.019 3.54069 214.092 3.54069C216.09 3.54069 217.608 5.02084 217.608 7.025C217.61 8.01455 217.32 8.86423 216.714 9.54272ZM199.865 38.0561C197.126 40.9955 193.602 42.461 189.326 42.461C184.817 42.461 181.141 40.9036 178.345 37.7805C175.715 34.8264 174.406 31.125 174.406 26.7117C174.406 18.9038 180.435 12.3799 188.362 12.3799C191.422 12.3799 194.078 13.0229 196.763 14.4968V20.9581C194.608 19.5009 191.909 18.1105 189.243 18.1105C183.683 18.1105 180.372 21.9351 180.372 27.3609C180.372 32.7158 183.875 36.7304 189.355 36.7304C191.838 36.7304 193.884 35.7993 195.518 33.9267C197.142 32.0645 197.988 29.3296 197.988 25.6532V5.54902C197.988 2.48641 200.472 0 203.539 0H203.955V26.5948C203.955 31.2795 202.602 35.1124 199.865 38.0561ZM135.258 38.269C132.508 41.0581 129.22 42.4631 125.408 42.4631C122.327 42.4631 119.707 41.8326 117.032 40.2794V33.8828C119.185 35.34 121.884 36.7304 124.552 36.7304C130.112 36.7304 133.423 32.9037 133.423 27.482C133.423 22.0541 129.997 18.1126 124.437 18.1126C121.951 18.1126 119.939 19.0061 118.364 20.7952C116.678 22.7368 115.807 25.5071 115.807 29.173V54.4317H115.387C112.325 54.4317 109.838 51.9474 109.838 48.8848V28.2273C109.838 19.4612 115.2 12.384 124.41 12.384C128.955 12.384 132.65 13.9393 135.45 17.0625C138.082 19.979 139.389 23.6804 139.389 28.1313C139.389 32.0895 138.014 35.4757 135.258 38.269Z" fill="#1EA639"/>
<path fill-rule="evenodd" clip-rule="evenodd" d="M39.0769 20.6971C37.4318 18.9748 35.3442 18.1126 32.7764 18.1126C27.2837 18.1126 23.9998 22.1167 23.9998 27.4236C23.9998 32.6553 27.3651 36.7325 32.7764 36.7325C38.1897 36.7325 41.555 32.6573 41.555 27.4236C41.5571 24.6428 40.722 22.4132 39.0769 20.6971ZM97.7758 20.6971C96.1307 18.9748 94.041 18.1126 91.4752 18.1126C85.9847 18.1126 82.6966 22.1167 82.6966 27.4236C82.6966 32.6553 86.0619 36.7325 91.4752 36.7325C96.8906 36.7325 100.252 32.6573 100.252 27.4236C100.252 24.6428 99.4209 22.4132 97.7758 20.6971ZM102.083 38.2168C99.1349 41.0435 95.59 42.461 91.4752 42.461C87.398 42.461 83.8761 41.0435 80.9263 38.2168C77.9701 35.3797 76.4962 31.7701 76.4962 27.4215C76.4962 18.933 82.9764 12.3819 91.4752 12.3819C95.5566 12.3819 99.0869 13.8099 102.053 16.6554C105.028 19.5092 106.517 23.1084 106.517 27.4236C106.517 31.7722 105.041 35.3818 102.083 38.2168ZM71.2813 19.9247C70.4065 21.3923 69.728 22.4466 69.25 23.0812C68.7239 23.7722 68.204 24.3255 67.6905 24.7054C71.8366 26.0457 73.3814 28.9183 73.3814 33.2001V41.8723H72.9618C69.8971 41.8723 67.4128 39.388 67.4128 36.3254V33.7889C67.4128 31.0206 66.1727 29.1375 63.2354 29.1375H57.8158V41.8723H57.3983C54.3336 41.8723 51.8493 39.388 51.8493 36.3254V5.54902C51.8493 2.48641 54.3336 0 57.3983 0H57.8158V23.3464H59.5799C61.5172 23.3464 62.7928 22.6846 63.5214 21.432L68.5339 12.9728L75.3334 12.9665L71.2813 19.9247ZM43.3859 38.2168C40.436 41.0435 36.8932 42.461 32.7764 42.461C28.6991 42.461 25.1752 41.0435 22.2295 38.2168C19.2712 35.3797 17.7953 31.7701 17.7953 27.4215C17.7953 18.933 24.2796 12.3819 32.7764 12.3819C36.8556 12.3819 40.388 13.8099 43.3546 16.6554C46.3316 19.5092 47.818 23.1084 47.818 27.4236C47.818 31.7722 46.342 35.3818 43.3859 38.2168ZM8.73062 41.8723C2.89768 41.8723 0 37.9016 0 32.3588V11.3256C0 8.26089 2.48432 5.77866 5.54902 5.77866H5.96655V12.9707H16.0479V18.7013H5.96655V33.0206C5.96655 35.4569 7.05422 36.1417 9.37988 36.1417H16.0479V41.8723H8.73062Z" fill="#1EA639"/>
</svg>
