<svg width="114" height="114" viewBox="0 0 114 114" fill="none" xmlns="http://www.w3.org/2000/svg">
<g clip-path="url(#clip0_303_22)">
<path d="M114 57C114 88.4791 88.4814 114 57 114C25.5186 114 0 88.4814 0 57C0 25.5186 25.5209 0 57 0C88.4791 0 114 25.5209 114 57Z" fill="#EEEAE5"/>
<path d="M6.23438 31.065L31.065 6.23438C20.3912 11.7055 11.7055 20.3912 6.23438 31.065Z" fill="#EEEAE5"/>
<path d="M39.8688 2.62113L2.62064 39.8693C2.05168 41.6766 1.57385 43.5114 1.18896 45.3667L45.3662 1.18945C43.5109 1.57427 41.6761 2.0521 39.8688 2.62113Z" fill="#EEEAE5"/>
<path d="M51.4856 0.265273L0.274668 51.4762C0.130684 52.9071 0.0438477 54.35 0.0141602 55.8046L55.8029 0.0136719C54.3497 0.0433594 52.9106 0.127227 51.4856 0.265273Z" fill="#EEEAE5"/>
<path d="M60.8828 0.133789L0.133301 60.8811C0.216426 62.1265 0.339629 63.3607 0.50291 64.5839L64.5811 0.503398C63.361 0.341602 62.1282 0.218398 60.8828 0.133789Z" fill="#EEEAE5"/>
<path d="M69.01 1.27148L1.27124 69.0124C1.50726 70.1124 1.77444 71.2004 2.0728 72.2766L72.2741 2.07305C71.1979 1.77469 70.1099 1.5075 69.01 1.27148Z" fill="#EEEAE5"/>
<path d="M76.2199 3.32422L3.32666 76.2219C3.67994 77.2119 4.05549 78.1872 4.4533 79.1476L79.1456 4.45309C78.1867 4.05379 77.2114 3.6775 76.2199 3.32422Z" fill="#EEEAE5"/>
<path d="M82.6968 6.11035L6.10303 82.7041C6.54834 83.5947 7.0226 84.475 7.5258 85.3448L85.3397 7.53313C84.4728 7.03586 83.5919 6.5616 82.6968 6.11035Z" fill="#EEEAE5"/>
<path d="M88.5479 9.52246L9.52271 88.5476C10.0615 89.3581 10.6204 90.1537 11.1993 90.9345L90.937 11.2013C90.1562 10.6209 89.3598 10.0613 88.5479 9.52246Z" fill="#EEEAE5"/>
<path d="M93.8343 13.502L13.5044 93.8341C14.1249 94.5659 14.7631 95.2821 15.4192 95.9827L95.9829 15.419C95.2823 14.7614 94.5661 14.1224 93.8343 13.502Z" fill="#EEEAE5"/>
<path d="M98.581 18.0146L18.0173 98.5806C18.718 99.2367 19.4342 99.875 20.166 100.495L100.5 20.1677C99.8784 19.4345 99.2386 18.7168 98.581 18.0146Z" fill="#EEEAE5"/>
<path d="M102.798 23.0625L23.0627 102.798C23.8435 103.378 24.6399 103.938 25.4518 104.477L104.477 25.4516C103.937 24.6411 103.377 23.8448 102.798 23.0625Z" fill="#EEEAE5"/>
<path d="M106.468 28.6602L28.6582 106.465C29.5251 106.962 30.4068 107.437 31.3034 107.89L107.897 31.2964C107.44 30.4058 106.963 29.527 106.468 28.6602Z" fill="#EEEAE5"/>
<path d="M109.547 34.8525L34.8525 109.547C35.8144 109.952 36.7896 110.332 37.7782 110.685L110.674 37.7782C110.32 36.7882 109.945 35.8129 109.547 34.8525Z" fill="#EEEAE5"/>
<path d="M111.927 41.7275L41.7261 111.927C42.8008 112.223 43.8888 112.491 44.9902 112.728L112.729 44.9895C112.493 43.8895 112.226 42.8022 111.927 41.7275Z" fill="#EEEAE5"/>
<path d="M113.497 49.4297L49.4165 113.497C50.6381 113.659 51.8717 113.782 53.117 113.866L113.867 53.1169C113.782 51.873 113.659 50.6439 113.497 49.4297Z" fill="#EEEAE5"/>
<path d="M113.735 62.5104C113.872 61.0869 113.956 59.6485 113.987 58.1953L58.1958 113.984C59.649 113.954 61.0881 113.87 62.5131 113.732L113.735 62.5104Z" fill="#EEEAE5"/>
<path d="M74.127 111.38L111.38 74.127C111.948 72.3204 112.425 70.4863 112.809 68.6318L68.6296 112.811C70.4849 112.426 72.3197 111.949 74.127 111.38Z" fill="#EEEAE5"/>
<path d="M107.766 82.9375L82.9351 107.766C93.6084 102.295 102.294 93.6103 107.766 82.9375Z" fill="#EEEAE5"/>
<path d="M43.7275 54.3015C45.5733 47.7198 51.5895 40.6638 51.5895 40.6638L48.4723 37.7871C29.0121 49.098 31.1251 65.8062 31.1251 65.8062L31.2186 65.775C31.3314 67.854 32.0326 69.8582 33.2407 71.5539C34.4487 73.2497 36.1137 74.5673 38.0417 75.3532C39.9698 76.1391 42.0815 76.3609 44.1307 75.9928C46.18 75.6246 48.0824 74.6818 49.6164 73.274C51.1504 71.8662 52.2528 70.0515 52.7951 68.0413C53.3373 66.0311 53.2972 63.9082 52.6794 61.9199C52.0615 59.9317 50.8914 58.1599 49.3053 56.8111C47.7192 55.4623 45.7825 54.5919 43.7208 54.3015H43.7275Z" fill="#F4B56A"/>
<path d="M82.3985 61.7783C81.7635 59.8228 80.5919 58.085 79.0173 56.7631C77.4426 55.4411 75.5281 54.5882 73.4922 54.3015C75.3403 47.7198 81.3542 40.6638 81.3542 40.6638L78.237 37.7871C58.7769 49.098 60.8876 65.8062 60.8876 65.8062L60.9789 65.775C61.0617 67.3384 61.4774 68.866 62.1984 70.2556C62.9194 71.6453 63.929 72.8648 65.1595 73.8327C66.3901 74.8005 67.8132 75.4943 69.3336 75.8676C70.854 76.2408 72.4366 76.2849 73.9754 75.997C75.5142 75.709 76.9738 75.0956 78.2563 74.1978C79.5389 73.3001 80.6149 72.1387 81.4122 70.7913C82.2095 69.444 82.7097 67.9419 82.8794 66.3856C83.0491 64.8293 82.8844 63.2547 82.3962 61.7672L82.3985 61.7783Z" fill="#F4B56A"/>
</g>
<defs>
<clipPath id="clip0_303_22">
<rect width="114" height="114" fill="white"/>
</clipPath>
</defs>
</svg>
